<svg xmlns="http://www.w3.org/2000/svg" width="256" height="256"><path fill-opacity=".016" d="M0 128.004v128.004l128.25-.254 128.25-.254.254-127.75L257.008 0H0v128.004m.485.496c0 70.4.119 99.053.265 63.672.146-35.38.146-92.98 0-128C.604 29.153.485 58.1.485 128.5" fill="#1976D2" fill-rule="evenodd"/><path fill-opacity=".083" d="M245.226 70.004c-2.305 2.147-3.097 4.705-5.572 17.996-3.257 17.488-5.154 35.85-5.154 49.889 0 12.46.228 14.534 1.701 15.464 1.355.857 2.475.451 5.5-1.994 3.691-2.983 3.832-3.338 4.964-12.465 1.052-8.476 2.566-18.047 6.944-43.894.792-4.675 1.716-12.061 2.053-16.413.538-6.94.389-8.077-1.215-9.25-2.65-1.937-6.744-1.641-9.221.667M10.291 84.509c-3.561 2.494-6.006 11.15-8.209 29.059-2.646 21.515-2.68 36.276-.115 49.509C4.427 175.766 7.15 180 12.851 180c2.062 0 4.289-.54 4.949-1.2 1.409-1.409 1.574-9.795.292-14.8-1.291-5.038-2.12-14.001-1.295-13.993.387.004 1.736 1.524 2.999 3.378C26.818 163.7 42.285 176 48.232 176c6.5 0 11.648-8.824 7.832-13.423-.698-.841-3.775-2.777-6.839-4.303-5.528-2.753-21.276-16.728-25.439-22.575l-2.135-2.998 3.925-3.093c15.119-11.919 26.822-26.937 28.067-36.02.487-3.55.167-4.66-2.124-7.383-3.267-3.882-4.858-3.95-9.907-.422-3.671 2.566-7.223 8.08-10.483 16.272-4.095 10.29-9.372 19.036-10.691 17.717-.281-.282.405-2.837 1.525-5.679 2.537-6.434 2.817-19.646.521-24.486C20.982 86.443 16.467 83 13.818 83c-.755 0-2.342.679-3.527 1.509m134.092 3.029c-1.411 2.154-1.564 4.233-1.008 13.75.36 6.167.926 20.437 1.258 31.712.555 18.818.773 20.685 2.66 22.75 2.674 2.927 5.791 2.854 8.662-.202l2.304-2.452 3.513 2.679c7.172 5.47 13.658 2.994 19.053-7.275 2.321-4.417 2.63-6.167 2.651-15 .04-16.839-5.656-27.352-14.882-27.465-3.306-.04-9.348 4.127-10.501 7.243-.502 1.355-1.176-1.989-1.959-9.709C154.627 88.701 153.22 85 149.074 85c-2.138 0-3.516.746-4.691 2.538m-21.142.448c-.686 1.098-1.28 5.462-1.329 9.75-.078 6.936-1.441 19.617-1.778 16.55-.228-2.067-7.431-6.286-10.731-6.286-11.987 0-18.319 25.379-10.414 41.741 2.413 4.995 7.35 10.055 10.608 10.873 3.044.764 7.496-1.02 10.484-4.2 2.23-2.374 2.322-2.386 4.349-.569 2.802 2.513 4.659 3.045 7.258 2.079 3.473-1.292 4.246-6.288 3.274-21.157-.477-7.297-.816-20.484-.752-29.304.099-13.81-.132-16.414-1.663-18.75-2.22-3.389-7.392-3.792-9.306-.727M208.5 100.58c-17.862 6.349-24.893 36.701-11.338 48.947 4.803 4.34 7.599 5.473 13.502 5.473 5.661 0 10.441-2.217 14.33-6.646 3.451-3.931 3.923-8.214 1.177-10.699-2.447-2.215-2.862-2.134-6.807 1.331-5.959 5.231-12.155 5.252-14.846.049-2.003-3.874-1.92-6.035.232-6.036 3.498-.001 14.203-5.948 18.292-10.162 4.782-4.928 5.958-7.43 5.958-12.68 0-9.125-9.407-13.52-20.5-9.577m-138.782 5.804c-6.013 2.23-10.257 5.627-13.821 11.064-7.412 11.305-7.929 27.451-1.166 36.41 2.873 3.805 11.279 8.129 15.769 8.11 7.037-.028 17.5-8.102 17.5-13.503 0-2.348-3.073-6.465-4.826-6.465-.454 0-1.916 1.183-3.25 2.629-5.97 6.474-13.12 6.378-16.265-.219-2.11-4.424-2.199-4.133 1.505-4.946 6.433-1.413 17.461-8.435 20.478-13.04 2.874-4.386 4.202-9.573 3.193-12.467-2.505-7.185-11.042-10.567-19.117-7.573m140.678 4.054c-3.663 1.584-7.165 6.156-8.03 10.483l-.618 3.089 6.086-2.19c6.134-2.207 11.179-5.876 11.151-8.11-.046-3.629-4.151-5.192-8.589-3.272m-141.375 6.846c-4.306 2.178-9.097 12.729-5.771 12.708.688-.004 4.175-1.467 7.75-3.251 5.495-2.743 6.551-3.691 6.83-6.134.506-4.432-3.574-5.972-8.809-3.323m93.677 5.161c-2.153 2.153-4.103 11.581-3.291 15.91.766 4.083 3.764 6.645 7.777 6.645 2.375 0 2.892-.565 3.89-4.25 2.693-9.939.748-18.978-4.206-19.554-1.439-.168-3.316.395-4.17 1.249m-53.726 2.088c-3.086 3.719-1.524 19.487 2.16 21.788 3.856 2.41 9.868-2.916 9.868-8.742 0-3.206-2.708-10.599-4.681-12.779-1.994-2.203-5.63-2.335-7.347-.267m114.528 39.14c-2.75.172-11.525.985-19.5 1.807s-21.025 1.953-29 2.513c-7.975.56-15.864 1.242-17.531 1.517-1.667.274-11.117 1.164-21 1.978-65.07 5.357-63.564 5.193-66.324 7.246-2.974 2.211-3.898 5.654-2.099 7.821 1.442 1.737 10.158 1.932 18.068.404 2.962-.572 9.661-1.674 14.886-2.449 5.225-.774 15.575-2.345 23-3.49 27.352-4.218 39.667-6.09 46.5-7.068 10.054-1.438 31.589-4.814 41.5-6.505 4.675-.798 10.075-1.464 12-1.481 1.925-.016 4.374-.69 5.441-1.498 1.278-.966 1.449-1.406.5-1.288-.792.099-3.691.321-6.441.493" fill="#1976D2" fill-rule="evenodd"/><path fill-opacity=".231" d="M247.27 69.636c-2.19.918-3.423 2.24-3.833 4.109-.332 1.515-.826 3.43-1.098 4.255-1.459 4.433-5.502 31.73-6.908 46.647-2.461 26.108-.629 32.763 6.932 25.181 3.069-3.079 3.37-3.964 4.016-11.828.385-4.675 2.069-16.375 3.742-26 6.907-39.727 6.958-40.406 3.129-42.333-2.321-1.168-3.254-1.173-5.98-.031M9.074 86.896c-3.07 4.311-5.866 17.726-7.213 34.604-1.502 18.815-1.511 23.513-.072 36.218C3.574 173.473 6.517 179 13.12 179c5.565 0 6.006-1.548 4.256-14.947-.814-6.239-1.345-12.462-1.178-13.828.28-2.302.558-2.126 3.788 2.395 5.213 7.298 9.772 12.077 16.354 17.141 4.652 3.58 6.953 4.657 10.727 5.019 4.265.41 5.092.152 7.369-2.305 4.996-5.391 3.024-9.516-6.925-14.484C42.908 155.693 21 135.216 21 133.212c0-.44 2.266-2.529 5.036-4.642 8.08-6.162 20.656-20.267 23.954-26.866C53.569 94.541 53.93 88.93 51 86c-1.1-1.1-2.833-2-3.852-2-5.003 0-12.173 8.323-15.129 17.562-2.116 6.615-6.971 15.004-10.741 18.562-2.532 2.388-3.341 2.791-2.766 1.376 5.708-14.04 6.849-23.057 3.864-30.518-2.776-6.939-9.746-9.08-13.302-4.086m136.331.207c-2.158 2.383-2.161 2.475-1.027 36.897.84 25.49 1.253 29.488 3.253 31.488 2.223 2.224 5.84 1.844 8.471-.89l2.312-2.402 3.521 2.902c7.358 6.065 14.672 2.685 19.161-8.856 4.346-11.174 2.103-28.359-4.665-35.748-4.367-4.767-9.751-4.908-14.896-.39-1.944 1.707-3.549 3.844-3.565 4.75-.027 1.419-.152 1.439-.911.145-.483-.825-1.327-6.801-1.874-13.279-1.042-12.344-2.626-16.72-6.053-16.72-1.002 0-2.679.946-3.727 2.103m-21.956 2.365c-.998 2.388-1.449 7.284-1.449 15.728v12.26l-3.012-3.655c-3.534-4.286-8.533-6.305-12.183-4.917C100.56 111.258 96 121.524 96 133.21c0 13.287 7.549 26.79 14.977 26.79 3.643 0 9.486-3.158 10.439-5.641.519-1.353 1.021-1.194 3.235 1.02 3.357 3.356 6.805 3.381 8.977.066 1.469-2.242 1.571-4.176.834-15.75-.462-7.257-.868-21.088-.901-30.736-.052-15.039-.314-17.927-1.834-20.25-2.639-4.032-6.421-3.685-8.278.759m82.803 12.636c-4.967 2.459-8.344 6.202-11.991 13.289-2.117 4.115-2.703 6.855-3.02 14.107-.362 8.317-.178 9.417 2.433 14.5 6.43 12.516 21.733 14.352 30.849 3.702 3.74-4.369 4.168-6.208 2.085-8.952-1.979-2.607-4.33-2.144-8.879 1.75-5.009 4.288-8.403 4.5-11.971.75-3.37-3.543-4.685-8.25-2.305-8.25 3.281 0 16.631-7.331 19.686-10.811 6.697-7.627 7.347-14.919 1.75-19.629-3.996-3.362-12.352-3.567-18.637-.456m-136.488 4.892c-11.554 3.479-18.976 15.375-19.032 30.504-.023 6.202.443 8.927 2.075 12.124 6.534 12.8 23.572 15.12 31.982 4.354 3.207-4.106 3.564-6.625 1.262-8.927-2.673-2.673-3.173-2.606-6.863.92-5.605 5.356-11.861 5.254-15.215-.248-1.081-1.773-1.967-3.753-1.969-4.401-.002-.648 2.468-2.103 5.49-3.234 14.665-5.487 22.901-15.452 20.364-24.64-1.713-6.204-9.59-9.013-18.094-6.452m138.656 3.89c-1.694 1.033-3.832 3.462-4.75 5.397-1.802 3.798-2.206 7.717-.796 7.717 2.248 0 9.824-3.295 12.807-5.571 7.663-5.844 1.112-12.649-7.261-7.543m-139.815 6.036c-3.271 2.156-6.05 6.255-7.001 10.328-.556 2.382-.339 2.749 1.627 2.74 3.005-.013 12.744-4.591 14.398-6.768 1.833-2.414 1.678-4.634-.458-6.567-2.391-2.164-5.002-2.083-8.566.267m95.64 4.183c-1.2.444-2.852 2.413-3.673 4.376-3.904 9.345-2.725 16.722 3.06 19.139 6.17 2.578 9.368-1.628 9.368-12.319 0-8.809-3.413-13.172-8.755-11.196m-55.84 3c-3.74 4.133-1.326 21.56 3.229 23.308 2.074.796 5.957-.991 7.765-3.572 3.035-4.334 1.372-15.122-3.092-20.054-2.167-2.395-5.572-2.257-7.902.318M219.5 165c-1.759.756-1.662.868.809.93 1.632.041 2.55-.349 2.191-.93-.34-.55-.704-.968-.809-.93-.105.039-1.091.457-2.191.93m-8.583.389c-.229.213-7.392.896-15.917 1.516-8.525.621-19.775 1.583-25 2.138-5.225.555-17.6 1.688-27.5 2.518-67.671 5.669-70.181 5.93-72.035 7.468-3.164 2.626-3.757 4.99-1.796 7.157 2.111 2.334 3.765 2.264 24.831-1.041 14.176-2.224 34.576-5.372 49.5-7.638a12094.9 12094.9 0 0023-3.523c26.498-4.085 40.57-6.168 45.271-6.701 5.304-.602 7.48-2.283 2.955-2.283-1.591 0-3.08.175-3.309.389" fill="#1976D2" fill-rule="evenodd"/><path fill-opacity=".305" d="M245.094 71.387C243 73.91 237.943 103.121 235.9 124.5c-1.088 11.38-.924 26.811.297 28.031 1.163 1.162 7.776-3.544 8.241-5.864.238-1.192.672-4.417.964-7.167.668-6.298 3.975-27.459 6.642-42.5 2.884-16.261 3.876-24.044 3.268-25.629-.704-1.834-8.693-1.822-10.218.016M11.9 84.672c-.88.229-2.56 2.534-3.733 5.122-3.728 8.226-5.385 21.001-5.902 45.495-.412 19.55-.226 23.87 1.31 30.39 2.626 11.152 6.849 15.305 12.491 12.286 2.181-1.168 2.474-5.831.908-14.465-3.114-17.164-2.646-18.837 3.167-11.337 9.603 12.388 20.663 21.735 26.667 22.535 5.426.724 9.41-2.612 8.996-7.531-.317-3.757-.668-4.085-10.887-10.167C39.619 153.847 21 135.195 21 133.04c0-.885 1.238-2.361 2.75-3.28 3.621-2.201 14.907-13.084 19.454-18.76C48.991 103.775 52 97.293 52 92.051 52 86.603 50.75 85 46.503 85c-2.267 0-4.089 1.016-6.8 3.792C37.666 90.878 36 92.908 36 93.303c0 .712-1.017 3.087-6.743 15.744C26.075 116.081 20.679 123 18.376 123c-1.139 0-1.047-.735.468-3.75 5.553-11.051 5.743-27.794.368-32.511-2.03-1.781-5.089-2.646-7.312-2.067m133.123 3.785c-.995 1.86-1.136 5.078-.579 13.25.405 5.936 1.033 20.168 1.396 31.626.603 19.041.827 20.955 2.601 22.25 2.759 2.014 4.327 1.771 6.971-1.083 1.275-1.375 2.583-2.5 2.907-2.5.325 0 1.715 1.125 3.09 2.5 1.856 1.856 3.559 2.5 6.611 2.5 5.442 0 7.429-1.199 10.385-6.268 8.77-15.038 2.671-43.745-9.29-43.728-3.744.005-8.485 3.212-10.306 6.97-.899 1.858-1.848 2.771-2.233 2.149-.368-.595-1.132-6.604-1.698-13.352-.617-7.362-1.608-13.171-2.476-14.521-1.949-3.029-5.704-2.923-7.379.207m-21.015 1.022c-.519 1.364-1.001 8.114-1.073 15.001-.071 6.887-.471 12.733-.889 12.991-.417.258-2.179-1.298-3.915-3.458-5.74-7.142-13.898-6.139-18.357 2.258-1.966 3.7-2.248 5.729-2.26 16.229-.012 10.647.25 12.507 2.326 16.5 2.959 5.692 6.689 9.665 9.808 10.448 2.867.719 9.011-1.929 10.682-4.604 1.489-2.384 2.882-2.335 4.438.156 1.454 2.329 6.393 2.716 8.119.636.827-.996.927-10.183.373-34.037-.816-35.096-.721-34.548-6.035-34.584-1.509-.01-2.592.819-3.217 2.464m83.271 12.631c-5.065 2.329-10.915 9.041-13.599 15.604-2.896 7.081-2.855 20.355.081 25.941 2.682 5.105 6.23 7.996 11.578 9.436 11.035 2.972 24.401-5.781 20.822-13.636-1.492-3.276-2.701-3.103-7.293 1.045-6.76 6.108-14.806 4.06-16.456-4.188-.599-2.995-.444-3.156 4.979-5.185 10.704-4.005 18.226-10.406 20.568-17.503.977-2.959.889-4.143-.529-7.13-3.081-6.493-11.556-8.337-20.151-4.384m-142.471 7.797c-15.978 10.133-18.604 39.692-4.249 47.827 6.071 3.44 14.893 3.17 20.121-.617 4.589-3.324 7.223-8.461 5.633-10.985-1.753-2.785-4.16-2.419-8.497 1.294-5.258 4.5-8.861 4.682-12.893.651-3.996-3.997-4.081-8.76-.173-9.701 8.008-1.928 18.655-9.524 21.832-15.576 2.398-4.567 1.814-9.558-1.505-12.877-2.62-2.62-3.585-2.923-9.304-2.923-5.327 0-7.139.48-10.965 2.907m143.533.15c-4.627 2.964-9.694 14.943-6.321 14.943 2.262 0 13.521-5.159 15.676-7.184 2.916-2.739 2.95-6.25.081-8.259-2.968-2.08-5.629-1.938-9.436.5M66.032 118.75c-3.364 3.379-6.155 10.461-4.697 11.918.796.796 9.007-1.754 12.466-3.873 1.816-1.112 4.005-3.095 4.865-4.408 1.424-2.173 1.417-2.611-.074-4.887-2.617-3.994-7.859-3.473-12.56 1.25m94.979 4.732c-2.641 4.273-3.737 13.352-2.092 17.323.688 1.66 2.698 3.596 4.752 4.575 3.22 1.536 3.785 1.551 5.898.167 2.859-1.873 3.787-6.245 3.27-15.399-.44-7.77-2.006-10.148-6.686-10.148-2.335 0-3.461.762-5.142 3.482m-53.139.178c-.927 1.122-1.361 4.355-1.337 9.974.029 6.8.411 8.819 2.099 11.09 2.576 3.466 6.201 3.98 9.54 1.354 3.189-2.509 4.059-6.578 2.811-13.157-1.361-7.179-4.25-10.921-8.431-10.921-1.865 0-3.908.724-4.682 1.66m90.628 43.387c-6.625.713-37.619 3.445-73 6.434-41.072 3.47-52.165 4.639-54.277 5.72-1.252.641-2.532 2.183-2.844 3.426-1.48 5.898.306 5.871 41.621-.625a3423.709 3423.709 0 0123-3.533c5.225-.775 15.575-2.346 23-3.49a9672.721 9672.721 0 0127-4.109c27.221-4.092 30.426-4.65 26.5-4.614-2.2.021-7.15.376-11 .791" fill="#1976D2" fill-rule="evenodd"/></svg>